<svg
  width="9"
  height="8"
  viewBox="0 0 9 8"
  fill="none"
  xmlns="http://www.w3.org/2000/svg"
>
  <path
    d="M1.91669 4.6L2.49169 3.48834C2.55421 3.36419 2.64929 3.25937 2.76678 3.1851C2.88427 3.11083 3.01974 3.06989 3.15869 3.06667H7.28336M7.28336 3.06667C7.40048 3.06647 7.51609 3.0931 7.62132 3.14452C7.72655 3.19594 7.8186 3.27079 7.8904 3.36332C7.9622 3.45585 8.01185 3.5636 8.03553 3.6783C8.05922 3.793 8.05631 3.9116 8.02703 4.025L7.43669 6.325C7.39398 6.49044 7.29724 6.63686 7.16181 6.74103C7.02639 6.84521 6.86005 6.90116 6.68919 6.9H1.15003C0.946696 6.9 0.751691 6.81923 0.607913 6.67545C0.464135 6.53167 0.383362 6.33667 0.383362 6.13334V1.15C0.383362 0.946672 0.464135 0.751667 0.607913 0.607889C0.751691 0.464111 0.946696 0.383338 1.15003 0.383338H2.64503C2.77325 0.382081 2.89974 0.413003 3.01291 0.473275C3.12609 0.533547 3.22234 0.621244 3.29286 0.728338L3.60336 1.18834C3.67317 1.29434 3.7682 1.38135 3.87994 1.44157C3.99167 1.50178 4.1166 1.53332 4.24353 1.53334H6.51669C6.72003 1.53334 6.91503 1.61411 7.05881 1.75789C7.20259 1.90167 7.28336 2.09667 7.28336 2.3V3.06667Z"
    stroke="currentColor"
    stroke-width="0.766667"
    stroke-linecap="round"
    stroke-linejoin="round"
  />
</svg>